<svg viewBox="0 0 500 600" xmlns="http://www.w3.org/2000/svg" xmlns:xlink="http://www.w3.org/1999/xlink" preserveAspectRatio="none">
  <defs>
    <!-- Frame 1: Large Left -->
    <pattern id="img1" patternUnits="userSpaceOnUse" x="0" y="0" width="252" height="600">
      <image href="" x="0" y="0" width="252" height="600" preserveAspectRatio="xMidYMid slice" />
    </pattern>
    <clipPath id="clip1">
      <path d="M0 0 h252 v600 h-252 Z" />
    </clipPath>

    <!-- Frame 2: Top Right Top Left -->
    <pattern id="img2" patternUnits="userSpaceOnUse" x="257" y="0" width="120" height="185">
      <image href="" x="0" y="0" width="120" height="185" preserveAspectRatio="xMidYMid slice" />
    </pattern>
    <clipPath id="clip2">
      <path d="M257 0 h120 v185 h-120 Z" />
    </clipPath>

    <!-- Frame 3: Top Right Top Right -->
    <pattern id="img3" patternUnits="userSpaceOnUse" x="382" y="0" width="118" height="185">
      <image href="" x="0" y="0" width="118" height="185" preserveAspectRatio="xMidYMid slice" />
    </pattern>
    <clipPath id="clip3">
      <path d="M382 0 h118 v185 h-118 Z" />
    </clipPath>

    <!-- Frame 4: Middle Right -->
    <pattern id="img4" patternUnits="userSpaceOnUse" x="257" y="190" width="243" height="200">
      <image href="" x="0" y="0" width="243" height="200" preserveAspectRatio="xMidYMid slice" />
    </pattern>
    <clipPath id="clip4">
      <path d="M257 190 h243 v200 h-243 Z" />
    </clipPath>

    <!-- Frame 5: Bottom Right Left -->
    <pattern id="img5" patternUnits="userSpaceOnUse" x="257" y="395" width="120" height="205">
      <image href="" x="0" y="0" width="120" height="205" preserveAspectRatio="xMidYMid slice" />
    </pattern>
    <clipPath id="clip5">
      <path d="M257 395 h120 v205 h-120 Z" />
    </clipPath>

    <!-- Frame 6: Bottom Right Right -->
    <pattern id="img6" patternUnits="userSpaceOnUse" x="382" y="395" width="118" height="205">
      <image href="" x="0" y="0" width="118" height="205" preserveAspectRatio="xMidYMid slice" />
    </pattern>
    <clipPath id="clip6">
      <path d="M382 395 h118 v205 h-118 Z" />
    </clipPath>
  </defs>

  <!-- Background -->
  <rect width="500" height="600" fill="#f5f5f5" />

  <!-- Image frames -->
  <rect x="0" y="0" width="252" height="600" fill="url(#img1)" clip-path="url(#clip1)" data-photo-frame="1" />
  <rect x="257" y="0" width="120" height="185" fill="url(#img2)" clip-path="url(#clip2)" data-photo-frame="2" />
  <rect x="382" y="0" width="118" height="185" fill="url(#img3)" clip-path="url(#clip3)" data-photo-frame="3" />
  <rect x="257" y="190" width="243" height="200" fill="url(#img4)" clip-path="url(#clip4)" data-photo-frame="4" />
  <rect x="257" y="395" width="120" height="205" fill="url(#img5)" clip-path="url(#clip5)" data-photo-frame="5" />
  <rect x="382" y="395" width="118" height="205" fill="url(#img6)" clip-path="url(#clip6)" data-photo-frame="6" />
</svg>
