<svg viewBox="0 0 480 540" xmlns="http://www.w3.org/2000/svg" xmlns:xlink="http://www.w3.org/1999/xlink" preserveAspectRatio="none">
  <defs>
    <!-- Extended bottom frames to reach y=540 -->
    <clipPath id="clip1">
      <path d="M0 0 H309.12 V316.8 H0 Z"/>
    </clipPath>
    <pattern id="img1" patternUnits="userSpaceOnUse" x="0" y="0" width="309.12" height="316.8">
      <image href="" preserveAspectRatio="xMidYMid meet" x="0" y="0" width="309.12" height="316.8" />
    </pattern>

    <clipPath id="clip2">
      <path d="M312.96 0 H480 V156.6 H312.96 Z"/>
    </clipPath>
    <pattern id="img2" patternUnits="userSpaceOnUse" x="312.96" y="0" width="167.04" height="156.6">
      <image href="" preserveAspectRatio="xMidYMid meet" x="0" y="0" width="167.04" height="156.6" />
    </pattern>

    <clipPath id="clip3">
      <path d="M312.96 160.2 H480 V316.8 H312.96 Z"/>
    </clipPath>
    <pattern id="img3" patternUnits="userSpaceOnUse" x="312.96" y="160.2" width="167.04" height="156.6">
      <image href="" preserveAspectRatio="xMidYMid meet" x="0" y="0" width="167.04" height="156.6" />
    </pattern>

    <clipPath id="clip4">
      <path d="M0 320.4 H480 V540 H0 Z"/>
    </clipPath>
    <pattern id="img4" patternUnits="userSpaceOnUse" x="0" y="320.4" width="480" height="219.6">
      <image href="" preserveAspectRatio="xMidYMid meet" x="0" y="0" width="480" height="219.6" />
    </pattern>
  </defs>

  <rect width="480" height="540" fill="#f5f5f5"/>

  <g>
    <path d="M0 0 H309.12 V316.8 H0 Z" fill="url(#img1)" clip-path="url(#clip1)" data-photo-frame="1" />
    <path d="M312.96 0 H480 V156.6 H312.96 Z" fill="url(#img2)" clip-path="url(#clip2)" data-photo-frame="2" />
    <path d="M312.96 160.2 H480 V316.8 H312.96 Z" fill="url(#img3)" clip-path="url(#clip3)" data-photo-frame="3" />
    <path d="M0 320.4 H480 V540 H0 Z" fill="url(#img4)" clip-path="url(#clip4)" data-photo-frame="4" />
  </g>
</svg>
