<svg viewBox="0 0 480 540" xmlns="http://www.w3.org/2000/svg" xmlns:xlink="http://www.w3.org/1999/xlink" preserveAspectRatio="none">
  <defs>
    <!-- Reduced gap from 8px to 4px between frames -->
    <pattern id="img1" patternUnits="userSpaceOnUse" x="0" y="0" width="238" height="130">
      <image href="" x="0" y="0" width="238" height="130" preserveAspectRatio="xMidYMid slice" />
    </pattern>
    <clipPath id="clip1">
      <path d="M0 0 h238 v130 h-238 Z" />
    </clipPath>

    <pattern id="img2" patternUnits="userSpaceOnUse" x="242" y="0" width="238" height="130">
      <image href="" x="0" y="0" width="238" height="130" preserveAspectRatio="xMidYMid slice" />
    </pattern>
    <clipPath id="clip2">
      <path d="M242 0 h238 v130 h-238 Z" />
    </clipPath>

    <pattern id="img3" patternUnits="userSpaceOnUse" x="0" y="134" width="149" height="202">
      <image href="" x="0" y="0" width="149" height="202" preserveAspectRatio="xMidYMid slice" />
    </pattern>
    <clipPath id="clip3">
      <path d="M0 134 h149 v202 h-149 Z" />
    </clipPath>

    <pattern id="img4" patternUnits="userSpaceOnUse" x="153" y="134" width="327" height="202">
      <image href="" x="0" y="0" width="327" height="202" preserveAspectRatio="xMidYMid slice" />
    </pattern>
    <clipPath id="clip4">
      <path d="M153 134 h327 v202 h-327 Z" />
    </clipPath>

    <pattern id="img5" patternUnits="userSpaceOnUse" x="0" y="340" width="480" height="200">
      <image href="" x="0" y="0" width="480" height="200" preserveAspectRatio="xMidYMid slice" />
    </pattern>
    <clipPath id="clip5">
      <path d="M0 340 h480 v200 h-480 Z" />
    </clipPath>
  </defs>

  <rect width="480" height="540" fill="#f5f5f5" />

  <rect x="0" y="0" width="238" height="130" fill="url(#img1)" clip-path="url(#clip1)" data-photo-frame="1" />
  <rect x="242" y="0" width="238" height="130" fill="url(#img2)" clip-path="url(#clip2)" data-photo-frame="2" />
  <rect x="0" y="134" width="149" height="202" fill="url(#img3)" clip-path="url(#clip3)" data-photo-frame="3" />
  <rect x="153" y="134" width="327" height="202" fill="url(#img4)" clip-path="url(#clip4)" data-photo-frame="4" />
  <rect x="0" y="340" width="480" height="200" fill="url(#img5)" clip-path="url(#clip5)" data-photo-frame="5" />
</svg>
