<svg viewBox="0 0 480 540" xmlns="http://www.w3.org/2000/svg" xmlns:xlink="http://www.w3.org/1999/xlink" preserveAspectRatio="none">
  <defs>
    <!-- Reduced gap from 8px to 4px between frames -->
    <pattern id="img1" patternUnits="userSpaceOnUse" x="0" y="0" width="480" height="178">
      <image href="" x="0" y="0" width="480" height="178" preserveAspectRatio="xMidYMid slice" />
    </pattern>
    <clipPath id="clip1">
      <path d="M0 0 h480 v178 h-480 Z" />
    </clipPath>

    <pattern id="img2" patternUnits="userSpaceOnUse" x="0" y="182" width="156" height="178">
      <image href="" x="0" y="0" width="156" height="178" preserveAspectRatio="xMidYMid slice" />
    </pattern>
    <clipPath id="clip2">
      <path d="M0 182 h156 v178 h-156 Z" />
    </clipPath>

    <pattern id="img3" patternUnits="userSpaceOnUse" x="160" y="182" width="160" height="178">
      <image href="" x="0" y="0" width="160" height="178" preserveAspectRatio="xMidYMid slice" />
    </pattern>
    <clipPath id="clip3">
      <path d="M160 182 h160 v178 h-160 Z" />
    </clipPath>

    <pattern id="img4" patternUnits="userSpaceOnUse" x="324" y="182" width="156" height="178">
      <image href="" x="0" y="0" width="156" height="178" preserveAspectRatio="xMidYMid slice" />
    </pattern>
    <clipPath id="clip4">
      <path d="M324 182 h156 v178 h-156 Z" />
    </clipPath>

    <pattern id="img5" patternUnits="userSpaceOnUse" x="0" y="364" width="480" height="176">
      <image href="" x="0" y="0" width="480" height="176" preserveAspectRatio="xMidYMid slice" />
    </pattern>
    <clipPath id="clip5">
      <path d="M0 364 h480 v176 h-480 Z" />
    </clipPath>
  </defs>

  <rect width="480" height="540" fill="#f5f5f5" />

  <rect x="0" y="0" width="480" height="178" fill="url(#img1)" clip-path="url(#clip1)" data-photo-frame="1" />
  <rect x="0" y="182" width="156" height="178" fill="url(#img2)" clip-path="url(#clip2)" data-photo-frame="2" />
  <rect x="160" y="182" width="160" height="178" fill="url(#img3)" clip-path="url(#clip3)" data-photo-frame="3" />
  <rect x="324" y="182" width="156" height="178" fill="url(#img4)" clip-path="url(#clip4)" data-photo-frame="4" />
  <rect x="0" y="364" width="480" height="176" fill="url(#img5)" clip-path="url(#clip5)" data-photo-frame="5" />
</svg>
